<?xml version="1.0" encoding="UTF-8" standalone="no"?>
<svg
   xmlns:dc="http://purl.org/dc/elements/1.1/"
   xmlns:cc="http://creativecommons.org/ns#"
   xmlns:rdf="http://www.w3.org/1999/02/22-rdf-syntax-ns#"
   xmlns:svg="http://www.w3.org/2000/svg"
   xmlns="http://www.w3.org/2000/svg"
   version="1.1"
   id="svg2"
   viewBox="0 0 128 128"
   height="136.53334"
   width="136.53334">
  <defs
     id="defs4" />
  <metadata
     id="metadata7">
    <rdf:RDF>
      <cc:Work
         rdf:about="">
        <dc:format>image/svg+xml</dc:format>
        <dc:type
           rdf:resource="http://purl.org/dc/dcmitype/StillImage" />
        <dc:title></dc:title>
      </cc:Work>
    </rdf:RDF>
  </metadata>
  <g
     transform="translate(0,-924.36214)"
     id="layer1">
    <rect
       ry="4.98491"
       y="929.36212"
       x="5"
       height="118"
       width="118"
       id="rect4169"
       style="fill:#57c4ff;fill-opacity:1;stroke:none;stroke-width:5;stroke-miterlimit:4;stroke-dasharray:none;stroke-opacity:1" />
    <rect
       ry="4.98491"
       y="944.36212"
       x="20"
       height="91.036003"
       width="88"
       id="rect4181"
       style="fill:#009200;fill-opacity:1;stroke:#ffd42a;stroke-width:5;stroke-miterlimit:4;stroke-dasharray:none;stroke-opacity:1" />
  </g>
  <g
     id="layer2">
    <path
       id="rect4201"
       d="m 59.553571,45.321429 1.574311,-3.796903 7.006873,1.188963 6.418818,12.250797 2.142857,2.678573 -16.607144,8.214286 -4.197675,-1.740186 -2.939658,1.674206 -6.641516,3.331232 -6.000458,1.942403 -4.032203,-0.377784 -2.70297,-2.164521 -0.893919,-3.568351 -0.06759,-5.374242 2.165371,-4.639795 3.754416,-3.239407 6.302756,-1.606487 6.771303,0.137927 5.125242,0.418193 z"
       style="opacity:1;fill:#ffccaa;fill-opacity:1;stroke:none;stroke-width:1;stroke-miterlimit:4;stroke-dasharray:none;stroke-opacity:1" />
    <path
       id="path4186"
       d="m 54.107143,50.678571 c 0,0 -21.64835,-5.359781 -21.64835,12.498681 0,17.858462 26.64835,-1.964286 26.64835,-1.964286"
       style="fill:none;fill-rule:evenodd;stroke:#000000;stroke-width:1.79999995;stroke-linecap:butt;stroke-linejoin:miter;stroke-miterlimit:4;stroke-dasharray:none;stroke-opacity:1" />
    <path
       id="path4190"
       d="m 64.872416,47.356893 c -2.478422,-0.61773 -4.087006,-1.031643 -5.602107,0.06012 -2.057295,1.482456 -2.484595,7.190133 -2.484595,7.190133 L 64.107143,53.178571 67.142857,48 63.928572,47.107142"
       style="fill:#57c4ff;fill-opacity:1;fill-rule:evenodd;stroke:#000000;stroke-width:1.79999995;stroke-linecap:butt;stroke-linejoin:miter;stroke-miterlimit:4;stroke-dasharray:none;stroke-opacity:1" />
    <path
       id="path4192"
       d="M 60.357143,41.392857 C 62.5,26.571428 62.5,25.857143 62.5,25.857143 l 3.392857,0.892857 -1.25,11.428571 2.678572,1.607143 3.035714,-14.821429 4.285714,0.892858 -3.214285,16.964285 4.285714,1.607143 5,-15 1.964286,2.678572 -5.714286,21.428571 -5.178572,3.392857 -3.75,-12.5 z"
       style="fill:#ffd42a;fill-opacity:1;fill-rule:evenodd;stroke:#000000;stroke-width:1.79999995;stroke-linecap:butt;stroke-linejoin:miter;stroke-miterlimit:4;stroke-dasharray:none;stroke-opacity:1" />
    <path
       id="rect4909"
       d="m 53.058037,69.42857 23.727676,-11.25 21.25,50.3538 H 49.901787 Z"
       style="opacity:1;fill:#ff0000;fill-opacity:1;stroke:none;stroke-width:1.79999995;stroke-miterlimit:4;stroke-dasharray:none;stroke-opacity:1" />
    <path
       id="path4194"
       d="m 77.236328,56.412109 -25.412109,12.38086 -0.04102,0.5 c 0,0 -0.804343,9.797478 -1.630859,19.59375 -0.413259,4.898136 -0.691888,9.810467 -1.158203,13.466801 l -0.805037,6.31222 1.976899,0.009 c 0.0346,-0.29753 0.117122,-1.17892 0.169922,-1.71736 0.10559,-1.07688 0.246667,-2.60889 0.410156,-4.44726 0.326976,-3.676745 0.744833,-8.577108 1.158203,-13.476567 0.805647,-9.548917 1.552297,-18.614706 1.591797,-19.095703 L 76.339827,58.805038 97.605452,108.89879 99.470128,108.747 77.236311,56.412459 Z"
       style="color:#000000;font-style:normal;font-variant:normal;font-weight:normal;font-stretch:normal;font-size:medium;line-height:normal;font-family:sans-serif;text-indent:0;text-align:start;text-decoration:none;text-decoration-line:none;text-decoration-style:solid;text-decoration-color:#000000;letter-spacing:normal;word-spacing:normal;text-transform:none;writing-mode:lr-tb;direction:ltr;baseline-shift:baseline;text-anchor:start;white-space:normal;clip-rule:nonzero;display:inline;overflow:visible;visibility:visible;opacity:1;isolation:auto;mix-blend-mode:normal;color-interpolation:sRGB;color-interpolation-filters:linearRGB;solid-color:#000000;solid-opacity:1;fill:#000000;fill-opacity:1;fill-rule:evenodd;stroke:none;stroke-width:1.7590735;stroke-linecap:butt;stroke-linejoin:miter;stroke-miterlimit:4;stroke-dasharray:none;stroke-dashoffset:0;stroke-opacity:1;color-rendering:auto;image-rendering:auto;shape-rendering:auto;text-rendering:auto;enable-background:accumulate" />
  </g>
</svg>
